<svg xmlns="http://www.w3.org/2000/svg" width="900" height="400" fill="none"><path fill="#fff" d="M0 0h900v400H0z"/><path stroke="#ECEFF1" stroke-linecap="round" stroke-linejoin="round" stroke-width="4" d="M122.55 374.59V178.64M289.68 374.59V178.64M456.8 374.59V178.64M623.92 374.59V178.64M791.05 374.59V178.64M122.55 199.27c48.64 32.23 106.15 36.09 167.13 0"/><path stroke="#ECEFF1" stroke-linecap="round" stroke-linejoin="round" stroke-width="4" d="M63 222.47c19.35-3.59 39.28-11.18 59.59-23.2M289.68 199.27c48.63 32.23 106.15 36.09 167.12 0M456.8 199.27c48.63 32.23 106.15 36.09 167.12 0"/><path stroke="#ECEFF1" stroke-linecap="round" stroke-linejoin="round" stroke-width="4" d="M623.92 199.27c48.64 32.23 106.15 36.09 167.13 0M791.05 199.27c21.83 14.47 45.46 23.22 70.39 25.21"/><path fill="#CFD8DC" stroke="#CFD8DC" stroke-linecap="round" stroke-linejoin="round" stroke-width="4" d="M300.68 374.59a102.084 102.084 0 0 1 2.78-10.52 26.973 26.973 0 0 1 3.69-7.95 11.2 11.2 0 0 1 7.17-4.68c2.91-.41 6.14.95 7.39 3.6a15.624 15.624 0 0 1 7.92-6.87 12.158 12.158 0 0 1 10.19.83 15.768 15.768 0 0 1 4.65 4.55c4.19 5.9 5.93 14 7.49 21l-51.28.04Z"/><path stroke="#CFD8DC" stroke-linecap="round" stroke-linejoin="round" stroke-width="4" d="M74.57 374.59c1.87-5.17 5.44-11.42 10-14.45 5.18-3.42 14.93-2.72 17.6 3.5a33.059 33.059 0 0 1 2.83 10.95H74.57ZM535.44 374.59a58.655 58.655 0 0 1 8.61-15.37c3.55-4.28 9.64-11.79 15.89-11.79s15.27 8.41 19.8 27.16h-44.3Z"/><path stroke="#CFD8DC" stroke-linecap="round" stroke-linejoin="round" stroke-width="4" d="M579.741 374.59h14.86c-2.46-10.19-7.36-14.75-10.76-14.75-2.69 0-5.34 2.57-7.28 4.8"/><path fill="#13C1AC" stroke="#13C1AC" stroke-linecap="round" stroke-linejoin="round" stroke-width="4" d="M200.27 252.69h3.34a13.09 13.09 0 0 1 13.09 13.09v106.61h-29.52V265.78a13.089 13.089 0 0 1 13.09-13.09Z"/><path fill="#13C1AC" stroke="#13C1AC" stroke-linecap="round" stroke-linejoin="round" stroke-width="4" d="M180 277.87a6.744 6.744 0 0 0-4.342-6.301 6.769 6.769 0 0 0-2.658-.439 6.929 6.929 0 0 0-6.54 7v12.93a13.503 13.503 0 0 0 3.966 9.563A13.485 13.485 0 0 0 180 304.56h15v-14h-11a4 4 0 0 1-4-4v-8.69ZM231.211 290.53a6.927 6.927 0 0 0-6.54 7v19.37a4 4 0 0 1-4 4h-11v14h15a13.481 13.481 0 0 0 13.48-13.49v-24.14a6.745 6.745 0 0 0-4.299-6.285 6.732 6.732 0 0 0-2.641-.455Z"/><path stroke="#04413C" stroke-linecap="round" stroke-linejoin="round" stroke-width="4" d="m194.95 341.09 2.62 2.06M207.27 328.5l2.4-1.65M227.36 326.98l-1.65-1.86M230.48 310.04l2.27-1.24M224.53 297.8l2.41 1.65M235.13 324.51l3.79-1.24M163.1 291.97l3.37 1.03M173.42 290.53l.62-1.65M171.74 277.11l1.06 1.24M178.74 273.46l1.82-1.99M179.65 298.99l1.06 1.65M194 316.33a4.15 4.15 0 0 0 1.06 1.84M211 309.73l1.42-1.27M211.78 287.76l1.25-1M196.54 281.36l-.56 2.28M194.17 254.3l.83 1.7M212.41 261.58l1.23-1.24M206.65 273.71l-.78-2.29M209.7 359.49l1.69-1.35M185.47 356h3.9M189.8 295l1.3 1.3M190.24 269a6.641 6.641 0 0 0 3.51-.24"/><path stroke="#90A4AE" stroke-linecap="round" stroke-linejoin="round" stroke-width="4" d="M783.51 371.1c10.49-4.64 15.4-16.1 6.42-30.1s-32.42-22.43-46.55-9.84c-27.94 24.68 31.5 65.35 39.1 25.69 1-12.37-4.87-21.37-18.11-18.07C746.07 349 760.72 375.64 780 366c11.24-12 4.52-40.09-14.89-36.41-18 4.59-23.08 33.94-6.12 42.72 15.46 2.45 29.28-10.22 34.21-24.32 5.87-9.74.7-24.07-12.28-20.93-13.32 2.75-25.9 22.47-12 33.17 1.64 1.26 6.8-1.24 7.94-4.89 3.48-11.23-6.83-18.22-15-20.22-11.35-4.94-19.39 5.87-17.86 14.16 1.53 8.29 9 11.61 13.7 12.42 8 3.2 19.26-5.13 12.83-13"/><path stroke="#CFD8DC" stroke-linecap="round" stroke-linejoin="round" stroke-width="4" d="M835.47 346.2a257.775 257.775 0 0 0-29.93-1M856.36 357.68c-16.52-.44-33.033-1.14-49.54-2.1M256.56 114.31c2.15-2.55 4.52-5.25 7.77-6 4.71-1.15 9.91 3 9.8 7.89.61-3.14 2.15-6.34 5-7.84s7-.48 8 2.57M320.21 77.47a16 16 0 0 1 17.42 6.71 10.518 10.518 0 0 1 9.62-9.18M312 123.54a16.092 16.092 0 0 1 3.81-4.54 5.452 5.452 0 0 1 5.61-.71 5.301 5.301 0 0 1 2.49 4.08 13.134 13.134 0 0 1-.6 4.89 16.843 16.843 0 0 1 2.14-5.86 5.704 5.704 0 0 1 5.31-2.7c2.06.33 3.71 2.77 2.76 4.63M372.859 93.79c2.82 1.45 4.19 4.71 4.83 7.81.64 3.1.79 6.36 2.17 9.21a15.665 15.665 0 0 1 10.21-8M431.529 114a13.124 13.124 0 0 1 13.68 8.85 13.406 13.406 0 0 1 11.52-7.54"/><path fill="#385EF9" stroke="#385EF9" stroke-linecap="round" stroke-linejoin="round" stroke-width="4" d="M382.11 268.05c6.799-.157 13.601.037 20.38.58.75.06-4.07 28.8-4.72 31.42-.3 1.19-1.29 6.48-1.76 5.28-1.9-4.81-6.27-15.7-8.13-20.52a171.97 171.97 0 0 1-5.77-16.76Z"/><path fill="#385EF9" stroke="#385EF9" stroke-linecap="round" stroke-linejoin="round" stroke-width="4" d="M389.471 350.11c2.53-50.74 14.53-94.7 18.53-104.11 4-9.41 8.24-18.77 17.39-23 10.83-5 29.7-5.81 39.13 1.57 9.43 7.38 10.84 19.74 10.27 32.36-.63 13.92.1 23.7 4.49 35.54 4.84 13 15.94 23.72 20.55 35.19 4.61 11.47 5.8 23.71 2.17 32.23-3.63 8.52-7 12.5-24 12.5h-80c-8.93 0-8.79-17.2-8.53-22.28Z"/><path fill="#385EF9" d="M393.63 299.29c.84-4.15 1.7-8.31 2.55-12.46l1.7-8.27a94.665 94.665 0 0 1 2.51-10.26"/><path stroke="#0B175E" stroke-linecap="round" stroke-linejoin="round" stroke-width="4" d="M393.63 299.29c.84-4.15 1.7-8.31 2.55-12.46l1.7-8.27a94.665 94.665 0 0 1 2.51-10.26"/><path fill="#0B175E" d="M367.05 242.14h68.63a12 12 0 0 1 11.95 12v8a12.005 12.005 0 0 1-3.546 8.378A12.004 12.004 0 0 1 435.68 274h-68.63"/><path stroke="#0B175E" stroke-linecap="round" stroke-linejoin="round" stroke-width="4" d="M367.05 242.14h68.63a12 12 0 0 1 11.95 12v8a12.005 12.005 0 0 1-3.546 8.378A12.004 12.004 0 0 1 435.68 274h-68.63M418.89 236.71a6.22 6.22 0 0 1 5.89-.4M444.62 236.71a6.258 6.258 0 0 0-5.9-.4"/><path fill="#385EF9" d="M404.9 312.36c.16-12.493.354-24.987.58-37.48l.12-7.3c0-1.93.09-4 1.1-5.6a6.62 6.62 0 0 1 6.23-2.81 10.907 10.907 0 0 1 6.32 3.17 32.298 32.298 0 0 1 4.4 5.67l15.12 22.75"/><path stroke="#0B175E" stroke-linecap="round" stroke-linejoin="round" stroke-width="4" d="M404.9 312.36c.16-12.493.354-24.987.58-37.48l.12-7.3c0-1.93.09-4 1.1-5.6a6.62 6.62 0 0 1 6.23-2.81 10.907 10.907 0 0 1 6.32 3.17 32.298 32.298 0 0 1 4.4 5.67l15.12 22.75"/><path fill="#385EF9" stroke="#0B175E" stroke-linecap="round" stroke-linejoin="round" stroke-width="4" d="M377.23 242.14h-18.46c-8.803 0-15.94 7.137-15.94 15.94 0 8.804 7.137 15.94 15.94 15.94h18.46c8.804 0 15.94-7.136 15.94-15.94 0-8.803-7.136-15.94-15.94-15.94Z"/><path fill="#0B175E" fill-rule="evenodd" d="M368.74 258.18a5.123 5.123 0 0 1 8.66-3.816 5.12 5.12 0 0 1-3.44 8.816 5.108 5.108 0 0 1-5.22-5ZM349 258.18a5.127 5.127 0 0 1 6.016-5.182A5.131 5.131 0 1 1 349 258.18Z" clip-rule="evenodd"/><path fill="#0B175E" stroke="#0B175E" stroke-linecap="round" stroke-linejoin="round" stroke-width="4" d="M502 359.89c3.63-8.52 2.44-20.76-2.17-32.23-2.3-5.71-6.2-11.22-10.13-16.93l-3.79.67c-14.68 2.64-27.44 11.3-40.12 19.16-12.68 7.86-26.53 15.34-41.45 15.13a25.616 25.616 0 0 1-8.91-1.5 23.152 23.152 0 0 1-5.44-3.11c-.22 2.993-.406 5.993-.56 9-.26 5.08-.4 22.28 8.59 22.28h80c16.98.03 20.39-3.95 23.98-12.47Z" opacity=".2"/><path stroke="#ECEFF1" stroke-linecap="round" stroke-linejoin="round" stroke-width="4" d="M193.5 150.33h-55c-6.35 0-8.86-4.23-9.47-6.69-.76-3.07 1.4-6.35 4.32-7.54 2.92-1.19 6.34-.59 9.16.83-.94-5.29-2.39-12.14-1.73-17.48.66-5.34 3.18-10.7 7.76-13.52 4.58-2.82 11.35-2.25 14.51 2.1 2.06 2.82 2.3 6.6 1.8 10.06a15.165 15.165 0 0 1 12.81-7.86 14.273 14.273 0 0 1 12.638 7.549 14.26 14.26 0 0 1 1.663 7.456 14.259 14.259 0 0 1-2.421 7.245 10.861 10.861 0 0 1 11.09 1.78 9.296 9.296 0 0 1 2.55 10.74c-1.68 3.56-5.73 5.33-9.68 5.33ZM753 114.87c2-3.81 7.65-4.78 11.18-2.31 3.53 2.47 4.7 7.51 3.27 11.57-1.43 4.06-5.38 10.57-15.37 10.57h-73.51c-6.88 0-9.79-2.5-11.56-5-1.77-2.5-1.93-6.19.14-8.42 2.07-2.23 6.35-2 7.77.64-.12-5 3.16-11.46 8-12.85a11.872 11.872 0 0 1 13.08 5.22 33.348 33.348 0 0 1 1-16c1.68-5 6.88-9.3 12-8 3.88 1 6.44 4.58 8.3 8.11.55-6.86 3.51-13.72 9.82-16.46 6.31-2.74 14.36-1.22 18.87 4 3.22 3.71 4.46 8.74 4.84 13.64.38 4.9 1.71 10.42 2.17 15.29Z"/><path fill="#13C1AC" stroke="#13C1AC" stroke-linecap="round" stroke-linejoin="round" stroke-width="4" d="M658.629 372.39c-5.22-25.42-9.36-41.76-9.43-57.32a19.075 19.075 0 0 1 11.62-18 25.377 25.377 0 0 1 18.331 0c6.77 2.71 10.489 9.24 10.199 20.37-.29 11.13-7.52 35.21-13.79 54.92l-16.93.03Z"/><path fill="#13C1AC" d="M683.81 333.5c3.08-1.58 6.64-1.84 10.1-2.08 2.72-.18 5.81-.23 7.7 1.72 1.64 1.69 1.78 4.37 1.13 6.63a5.593 5.593 0 0 1-1.16 2.29 5.002 5.002 0 0 1-4 1.4 15.063 15.063 0 0 1-4.24-1.1l-10-3.72"/><path stroke="#13C1AC" stroke-linecap="round" stroke-linejoin="round" stroke-width="4" d="M683.81 333.5c3.08-1.58 6.64-1.84 10.1-2.08 2.72-.18 5.81-.23 7.7 1.72 1.64 1.69 1.78 4.37 1.13 6.63a5.593 5.593 0 0 1-1.16 2.29 5.002 5.002 0 0 1-4 1.4 15.063 15.063 0 0 1-4.24-1.1l-10-3.72"/><path fill="#13C1AC" d="M684.93 301.94c.49-8.34 1.51-17 6.09-24a17.735 17.735 0 0 1 7.1-6.52 10.708 10.708 0 0 1 9.42 0c3.74 2 5.58 6.59 5.28 10.82-.3 4.23-2.41 8.14-4.92 11.55a47.686 47.686 0 0 1-21.9 16.38"/><path stroke="#13C1AC" stroke-linecap="round" stroke-linejoin="round" stroke-width="4" d="M684.93 301.94c.49-8.34 1.51-17 6.09-24a17.735 17.735 0 0 1 7.1-6.52 10.708 10.708 0 0 1 9.42 0c3.74 2 5.58 6.59 5.28 10.82-.3 4.23-2.41 8.14-4.92 11.55a47.686 47.686 0 0 1-21.9 16.38"/><path fill="#13C1AC" d="M691.3 278.43a37.903 37.903 0 0 0-.82-9.73c-.77-3.58-2.49-7.48-6-8.66-6.28-2.12-10.32 5.37-9.27 10.64.251 1.12.612 2.212 1.08 3.26 1.53 3.66 3.23 5.27 5.83 8.06a61.392 61.392 0 0 0 9.08 8"/><path stroke="#13C1AC" stroke-linecap="round" stroke-linejoin="round" stroke-width="4" d="M691.3 278.43a37.903 37.903 0 0 0-.82-9.73c-.77-3.58-2.49-7.48-6-8.66-6.28-2.12-10.32 5.37-9.27 10.64.251 1.12.612 2.212 1.08 3.26 1.53 3.66 3.23 5.27 5.83 8.06a61.392 61.392 0 0 0 9.08 8"/><path fill="#13C1AC" d="M653.999 304.72c-4-3.4-8.07-6.85-11-11.19-2.93-4.34-4.75-9.75-3.68-14.9 1.07-5.15 5.53-9.73 10.78-9.86 1.042.075 2.088.075 3.13 0 3-.47 5.73-3.5 8.62-2.47 2.4.85 3 3.91 3.11 6.46.22 8.72-1.77 17.33-3.75 25.82"/><path stroke="#13C1AC" stroke-linecap="round" stroke-linejoin="round" stroke-width="4" d="M653.999 304.72c-4-3.4-8.07-6.85-11-11.19-2.93-4.34-4.75-9.75-3.68-14.9 1.07-5.15 5.53-9.73 10.78-9.86 1.042.075 2.088.075 3.13 0 3-.47 5.73-3.5 8.62-2.47 2.4.85 3 3.91 3.11 6.46.22 8.72-1.77 17.33-3.75 25.82"/><path fill="#13C1AC" d="M652.6 329.52c-2.88-4.6-5.25-9.64-9.19-13.36-3.94-3.72-10.11-5.84-14.87-3.23a8.104 8.104 0 0 0-2.46 2.05 9.476 9.476 0 0 0-1.84 4.73c-.94 7.51 4.57 14.64 11.34 18 6.77 3.36 14.58 3.82 22.14 4.2"/><path stroke="#13C1AC" stroke-linecap="round" stroke-linejoin="round" stroke-width="4" d="M652.6 329.52c-2.88-4.6-5.25-9.64-9.19-13.36-3.94-3.72-10.11-5.84-14.87-3.23a8.104 8.104 0 0 0-2.46 2.05 9.476 9.476 0 0 0-1.84 4.73c-.94 7.51 4.57 14.64 11.34 18 6.77 3.36 14.58 3.82 22.14 4.2"/><path fill="#13C1AC" d="M626.44 314.15c-2.85-4.88-5.16-10.24-5.4-15.88a11.77 11.77 0 0 1 1.07-5.93 5.994 5.994 0 0 1 4.75-3.36 6.117 6.117 0 0 1 5.31 3.12 13.261 13.261 0 0 1 1.63 6.2c.31 5.06-.56 10.11-1.42 15.11"/><path stroke="#13C1AC" stroke-linecap="round" stroke-linejoin="round" stroke-width="4" d="M626.44 314.15c-2.85-4.88-5.16-10.24-5.4-15.88a11.77 11.77 0 0 1 1.07-5.93 5.994 5.994 0 0 1 4.75-3.36 6.117 6.117 0 0 1 5.31 3.12 13.261 13.261 0 0 1 1.63 6.2c.31 5.06-.56 10.11-1.42 15.11"/><path stroke="#04413C" stroke-linecap="round" stroke-linejoin="round" stroke-width="4" d="m642.72 283.89 2.95 1.52M655 275.47c.329-.436.543-.949.62-1.49M660.3 285.25l2.14-.8M685.739 272.49l.42-1.06M702.68 277.58l.22-1.48M706.14 287.21l3.14-1M695.72 297.31V295M674.3 318.75a6.635 6.635 0 0 1 2.74-1.53M660.09 305.58l2.11 4.25M671.76 301.78a8.882 8.882 0 0 1 2.08-2.6M685.319 321.07a17.836 17.836 0 0 0 4.46-1.47M695.68 338a5.206 5.206 0 0 0 1.39-1.37M671 341.26l1.54-2.84M660.47 326.65a4.422 4.422 0 0 1 1.75 2.05M644.35 328.51l.5 2.1M630.8 322.8l3.18.64M628.899 334.23a13.749 13.749 0 0 1 3.62-2.08M628.899 304.53l.63-.43M618.43 292.31c1.037.878 2.13 1.69 3.27 2.43M659.229 356.71c.105.703.387 1.367.82 1.93M674.33 356.33l3.37-2.79"/><path stroke="#CFD8DC" stroke-linecap="round" stroke-linejoin="round" stroke-width="4" d="M38.56 374.59h822.88"/></svg>